<svg width="414" height="388" viewBox="0 0 414 388" fill="none" xmlns="http://www.w3.org/2000/svg">
<path d="M197.634 0.826841C198.567 1.22684 199.767 1.09351 200.167 0.693508C200.701 0.293508 199.901 -0.106492 198.434 0.0268409C196.967 0.0268409 196.567 0.426841 197.634 0.826841Z" fill="#A45230"/>
<path d="M183.233 2.15949C166.7 4.69282 139.767 13.6262 125.1 21.3595C88.4334 40.6928 56.3001 73.3595 39.9001 108.293C24.5667 140.826 16.4334 183.093 19.2334 215.359C23.7667 266.959 43.7667 310.426 78.0334 343.226C121.767 385.093 182.033 397.226 242.7 376.559C291.633 359.759 333.5 321.493 350.7 277.493C356.7 262.293 356.433 261.226 349.9 274.293C344.433 285.093 332.967 302.026 324.833 311.226C320.167 316.426 318.033 316.026 317.9 310.293C317.9 305.493 312.433 293.493 307.9 288.159L303.1 282.693L309.9 279.759C318.433 276.159 325.367 268.159 327.9 259.226C328.833 255.626 330.433 246.293 331.233 238.693C333.367 219.626 336.967 206.559 342.567 197.893C348.167 189.093 348.433 186.959 343.9 185.759C337.367 184.159 326.3 195.893 320.567 210.426C319.1 214.293 316.567 223.226 315.1 230.293C311.9 244.826 311.1 246.959 306.033 252.293C300.433 258.426 295.1 259.893 279.367 259.893C261.367 259.893 252.967 262.159 247.367 268.559C244.7 271.626 243.233 274.693 243.233 277.226V281.226H254.567C260.833 281.226 265.9 281.493 265.9 281.626C265.9 281.893 263.633 284.559 260.967 287.359C258.167 290.293 254.833 295.626 253.633 299.226C250.3 308.693 245.9 330.159 246.7 332.559C248.033 335.759 253.767 335.093 254.567 331.493C254.967 329.893 256.433 322.959 257.9 316.159C260.967 302.026 262.7 298.026 268.167 293.093C273.633 287.893 276.967 286.559 283.9 286.559C296.967 286.559 304.967 294.826 309.9 313.359C311.9 320.959 312.033 323.493 310.833 325.093C306.433 330.426 282.033 346.826 267.5 354.159C235.367 370.426 203.367 377.093 169.9 374.426C110.567 369.759 57.9001 324.959 36.7001 261.493C31.9001 247.093 31.2334 240.826 35.7667 252.559C45.3667 277.493 59.7667 299.359 79.7667 319.226C96.9667 336.293 108.967 344.693 128.567 353.359C143.9 360.026 154.567 363.226 165.9 364.426L173.233 365.226L162.567 362.026C145.1 356.693 130.567 349.893 116.833 340.826C98.0334 328.293 98.4334 328.826 101.233 316.959C105.367 300.026 109.5 292.959 118.167 288.426C123.633 285.626 133.367 286.026 139.5 289.493C146.567 293.493 150.433 300.559 153.9 315.893C155.5 322.826 157.367 329.893 158.033 331.493C159.367 334.826 164.167 335.626 165.367 332.693C166.567 329.626 159.233 299.493 155.767 293.626C154.033 290.559 151.1 286.959 149.233 285.493C147.5 284.026 146.433 282.559 146.833 282.026C147.233 281.626 152.3 281.226 158.033 281.226C169.233 281.226 171.367 279.759 168.433 274.159C162.967 263.626 153.633 259.893 132.967 259.893C118.167 259.893 111.9 258.293 106.167 252.826C101.5 248.426 99.6334 244.293 97.1001 231.759C92.9668 210.959 86.4334 197.093 76.9667 189.359C71.6334 184.959 67.7667 184.426 65.5001 187.893C64.5667 189.493 65.5001 192.026 69.1001 197.626C74.8334 206.693 78.4334 219.626 81.2334 241.226C82.3001 249.626 83.7667 258.693 84.5667 261.359C86.7001 268.693 94.1668 276.559 102.433 280.026L109.767 282.959L106.433 285.493C101.633 289.359 96.9668 298.159 94.4334 308.559C93.2334 313.626 91.7668 318.426 91.2334 318.959C90.1668 320.293 76.9667 304.693 68.5667 292.026C55.3667 272.159 43.3667 242.959 38.3001 218.426C35.1001 202.959 35.1001 168.826 38.3001 152.959C41.5001 137.093 46.4334 122.959 54.0334 107.626C61.9001 91.6262 64.8334 87.0928 74.9667 74.2928C103.5 38.4262 138.433 16.0262 184.567 4.02615C193.367 1.62615 192.567 0.692818 183.233 2.15949Z" fill="#A45230"/>
<path d="M203.235 10.4272C134.302 20.4272 72.8351 72.0272 53.2351 136.427C49.2351 149.627 45.9018 167.761 46.0351 175.227C46.1684 179.494 46.5684 178.694 48.0351 170.561C54.0351 137.361 70.3018 106.561 95.7685 80.1606C117.368 57.7606 142.702 41.6272 172.302 31.3606C204.835 20.0272 242.035 19.4939 272.435 29.8939C329.902 49.3606 373.635 104.961 388.435 176.827C390.035 184.294 391.235 192.961 391.368 196.161C391.635 208.027 393.635 208.827 393.768 197.227C394.035 170.561 386.835 136.427 375.502 111.894C360.035 77.8939 332.035 46.1606 302.968 29.7606C290.968 22.9606 274.435 16.2939 261.635 13.2272C249.368 10.1606 216.035 8.56055 203.235 10.4272Z" fill="#A45230"/>
<path d="M243.098 36.6931C272.298 45.3598 294.698 59.0931 314.831 80.4264C327.098 93.3598 335.231 105.093 343.898 122.426C374.298 183.093 378.698 249.36 355.498 297.626C336.564 336.96 297.764 369.226 251.631 384.026C240.564 387.493 239.764 388.96 250.164 386.56C284.164 378.96 315.898 362.026 338.564 339.226C352.164 325.626 360.964 313.226 368.564 296.56C393.098 243.626 386.298 173.093 351.231 114.16C331.631 81.2264 308.564 59.7598 277.231 45.6264C266.431 40.6931 248.164 35.2264 238.564 34.0264C232.831 33.3598 233.498 33.7598 243.098 36.6931Z" fill="#A45230"/>
<path d="M202.301 66.9595C196.568 72.9595 195.234 76.1595 195.234 83.4928C195.234 88.6928 196.301 91.7595 200.034 98.0262C202.701 102.293 205.768 107.36 206.701 109.226C209.101 113.493 208.968 122.293 206.568 126.56C203.501 131.893 204.301 132.693 208.701 128.426C214.434 122.96 216.568 118.293 216.568 110.96C216.568 105.626 215.501 102.56 210.434 94.1595C203.368 82.2928 202.034 76.0262 205.101 68.6928C206.301 65.7595 207.101 63.2262 206.834 63.0928C206.568 62.8262 204.568 64.5595 202.301 66.9595Z" fill="#A45230"/>
<path d="M176.967 80.2934C169.5 88.4267 169.233 96.2934 176.033 106.293C181.767 114.827 182.967 120.827 180.167 126.427C178.167 130.427 178.167 130.427 180.7 129.227C185.1 126.827 188.033 119.093 187.5 111.227C187.367 109.627 185.1 105.227 182.567 101.227C178.967 95.6267 177.9 92.5601 177.9 87.8934C177.9 84.5601 178.567 81.0934 179.5 80.1601C180.3 79.3601 180.7 78.2934 180.433 77.8934C180.033 77.4934 178.433 78.5601 176.967 80.2934Z" fill="#A45230"/>
<path d="M230.297 80.2934C222.963 88.2934 222.697 94.9601 229.363 106.027C235.097 115.627 236.297 120.96 233.497 126.427C231.497 130.427 231.497 130.427 234.03 129.227C237.497 127.227 240.83 120.293 241.097 114.427C241.097 111.093 239.763 107.227 236.163 101.493C230.963 93.0934 229.897 86.2934 232.697 80.9601C234.697 77.0934 233.497 76.6934 230.297 80.2934Z" fill="#A45230"/>
<path d="M144.564 144.561C142.697 146.827 143.764 157.227 146.831 166.561C149.097 173.227 156.297 184.827 158.831 185.761C159.631 186.161 163.897 184.161 168.297 181.361C175.231 176.827 176.297 175.627 177.097 170.827C177.764 165.894 178.831 164.827 188.031 158.694C193.631 154.961 198.697 151.894 199.364 151.894C202.164 151.894 200.164 154.427 193.231 160.027C186.431 165.494 184.431 167.894 186.964 167.894C187.497 167.894 191.097 165.494 195.097 162.561C205.631 154.561 208.031 156.027 198.564 164.561C194.297 168.561 190.964 172.161 191.497 172.561C191.897 172.961 195.764 170.694 200.031 167.361C211.631 158.694 211.897 161.627 200.564 172.161C191.897 180.161 189.897 181.361 185.897 181.227C178.697 180.827 178.697 180.827 172.031 186.694C166.164 191.894 165.897 192.427 167.897 194.561C169.097 195.894 171.897 197.761 174.031 198.561C176.964 199.761 177.897 201.094 177.897 203.761C177.897 210.294 179.231 210.561 205.897 210.561C232.431 210.561 233.897 210.161 233.897 203.894C233.897 201.361 234.964 200.027 238.297 198.694C244.964 195.761 258.297 181.494 262.164 173.227C265.897 165.094 269.497 151.094 268.164 149.627C267.631 149.227 260.564 153.227 252.564 158.694C241.764 165.894 237.631 169.494 237.097 171.894C235.497 179.227 233.231 182.961 228.564 186.027C220.964 191.094 215.231 191.494 210.564 187.494L206.697 184.294L208.964 178.294C212.564 168.827 217.497 165.094 227.497 164.027C235.497 163.227 236.431 162.694 247.631 153.361C254.031 148.027 259.231 143.361 259.231 143.094C259.231 142.827 233.764 142.561 202.697 142.561C154.697 142.561 146.031 142.827 144.564 144.561Z" fill="#A45230"/>
<path d="M123.498 226.827C122.565 227.761 121.898 229.361 121.898 230.561C121.898 235.227 124.698 235.894 143.498 235.894C158.965 235.894 162.965 236.294 169.498 238.694C183.765 244.161 195.765 259.227 199.232 276.427C202.565 292.694 197.765 307.761 184.965 321.361C175.898 330.961 174.832 334.561 181.098 334.561C185.898 334.561 196.832 323.094 201.498 313.361C203.498 308.961 205.498 305.361 205.898 305.361C206.298 305.227 208.298 308.827 210.298 313.227C215.098 323.494 226.298 334.827 231.232 334.294C236.832 333.627 235.898 329.894 228.032 322.561C206.698 302.294 206.432 270.294 227.498 248.827C237.765 238.294 245.098 235.894 267.365 235.894C276.965 235.894 285.898 235.227 287.365 234.561C290.165 232.961 290.698 229.227 288.298 226.827C286.032 224.561 125.765 224.561 123.498 226.827ZM227.232 236.561C227.232 236.961 225.098 239.094 222.565 241.361C216.298 246.961 212.698 252.161 209.098 261.094L206.032 268.561L204.565 264.561C201.098 255.494 198.432 251.094 191.498 243.761L184.298 235.894H205.765C217.632 235.894 227.232 236.161 227.232 236.561Z" fill="#A45230"/>
<path d="M8.96481 282.292C10.0315 291.892 13.6315 298.159 20.4315 302.559C28.4315 307.892 29.8981 307.759 29.8981 301.226C29.8981 294.559 27.3648 288.426 22.5648 283.359C19.3648 280.159 11.7648 275.892 9.09815 275.892C8.56481 275.892 8.56481 278.826 8.96481 282.292Z" fill="#A45230"/>
<path d="M397.236 278.027C391.236 281.094 387.103 285.361 384.436 291.227C381.769 296.961 381.103 306.561 383.236 306.561C386.969 306.561 395.636 300.694 398.703 296.027C402.036 290.827 404.836 275.894 402.436 275.894C401.769 275.894 399.503 276.827 397.236 278.027Z" fill="#A45230"/>
<path d="M9.36566 320.559C-2.36767 325.359 -2.501 325.759 5.76566 333.359C18.4323 344.692 34.5657 348.159 48.5657 342.292L53.2323 340.292L44.5657 336.292C39.7657 334.026 33.499 331.626 30.5657 331.226C20.4323 329.359 20.8323 327.759 31.2323 328.292C37.499 328.692 43.7657 330.026 47.7657 331.759C51.3657 333.359 54.5657 334.426 54.8323 334.026C56.1657 332.692 45.3657 322.559 39.899 320.026C31.499 316.159 19.6323 316.292 9.36566 320.559Z" fill="#A45230"/>
<path d="M371.5 320.161C366.7 322.427 355.766 332.961 356.966 334.027C357.1 334.294 361.366 332.961 366.3 331.227C372.033 329.094 378.166 327.894 382.966 327.894C391.233 328.027 390.433 329.627 381.233 331.094C374.7 332.294 361.1 338.694 361.5 340.561C361.9 342.961 372.966 345.361 380.7 344.827C390.566 344.027 398.433 340.294 406.566 332.827L413.233 326.561L409.9 324.027C401.233 317.094 381.766 315.227 371.5 320.161Z" fill="#A45230"/>
<path d="M51.9004 352.427C49.767 353.493 46.4337 355.627 44.7004 357.227C41.6337 360.16 41.6337 360.427 43.9004 362.16C50.3004 366.827 64.8337 366.027 71.9004 360.693C74.4337 358.693 76.567 356.56 76.567 356.027C76.567 354.16 66.167 350.56 60.8337 350.56C58.167 350.693 54.167 351.493 51.9004 352.427Z" fill="#A45230"/>
<path d="M340.3 352.827C334.567 355.094 334.3 355.894 337.633 358.827C343.367 363.894 348.833 365.627 357.633 364.827C371.9 363.761 373.367 359.094 361.367 353.361C354.7 350.027 347.233 349.894 340.3 352.827Z" fill="#A45230"/>
<path d="M174.966 366.159C175.766 366.426 177.366 366.426 178.299 366.159C179.099 365.759 178.432 365.493 176.566 365.493C174.699 365.493 174.032 365.759 174.966 366.159Z" fill="#A45230"/>
</svg>
